<svg width="32" height="32" viewBox="0 0 32 32" fill="none" xmlns="http://www.w3.org/2000/svg">
  <!-- Background circle with gradient -->
  <circle cx="16" cy="16" r="16" fill="url(#gradient)"/>
  
  <!-- Om symbol in the center -->
  <path d="M16 8C16 8 18 10 18 12C18 14 16 16 16 16C16 16 14 14 14 12C14 10 16 8 16 8Z" fill="white" opacity="0.9"/>
  <path d="M16 16C16 16 18 18 18 20C18 22 16 24 16 24C16 24 14 22 14 20C14 18 16 16 16 16Z" fill="white" opacity="0.9"/>
  
  <!-- Circuit pattern around the Om -->
  <circle cx="8" cy="8" r="1.5" fill="white" opacity="0.7"/>
  <circle cx="24" cy="8" r="1.5" fill="white" opacity="0.7"/>
  <circle cx="8" cy="24" r="1.5" fill="white" opacity="0.7"/>
  <circle cx="24" cy="24" r="1.5" fill="white" opacity="0.7"/>
  
  <!-- Connecting lines -->
  <line x1="8" y1="8" x2="12" y2="12" stroke="white" stroke-width="1" opacity="0.5"/>
  <line x1="24" y1="8" x2="20" y2="12" stroke="white" stroke-width="1" opacity="0.5"/>
  <line x1="8" y1="24" x2="12" y2="20" stroke="white" stroke-width="1" opacity="0.5"/>
  <line x1="24" y1="24" x2="20" y2="20" stroke="white" stroke-width="1" opacity="0.5"/>
  
  <!-- Gradient definition -->
  <defs>
    <linearGradient id="gradient" x1="0%" y1="0%" x2="100%" y2="100%">
      <stop offset="0%" style="stop-color:#f97316;stop-opacity:1" />
      <stop offset="100%" style="stop-color:#ea580c;stop-opacity:1" />
    </linearGradient>
  </defs>
</svg>
